<svg width="222" height="467" xmlns="http://www.w3.org/2000/svg" xmlns:xlink="http://www.w3.org/1999/xlink">
  <defs>
    <circle id="a" cx="52.2" cy="52.2" r="52.2"/>
    <path id="c" d="M0 0h25.8v23.4H0z"/>
    <path id="e" d="M.482 0h18.836l-4.363 23.4H4.845z"/>
  </defs>
  <g transform="translate(0 1)" fill="none" fill-rule="evenodd">
    <g transform="translate(38.4)">
      <circle stroke="#171717" stroke-width="1.8" cx="52.4" cy="52.4" r="52.4"/>
      <g transform="translate(39.2 17.3)" stroke="#A0A0A0" stroke-width="1.2">
        <ellipse cx="2.913" cy="11.4" rx="2.421" ry="2.4"/>
        <ellipse cx="13.805" cy="2.4" rx="2.421" ry="2.4"/>
        <ellipse cx="18.646" cy="20.4" rx="2.421" ry="2.4"/>
        <ellipse cx="12.595" cy="38.4" rx="2.421" ry="2.4"/>
      </g>
      <mask id="b" fill="#fff">
        <use xlink:href="#a"/>
      </mask>
      <g mask="url(#b)" stroke="#171717" stroke-dasharray="9,3" stroke-width="1.2">
        <path d="M41.4 42.5c0 7.456-6.044 13.5-13.5 13.5s-13.5-6.044-13.5-13.5m-.6 0C13.8 49.956 7.756 56 .3 56s-13.5-6.044-13.5-13.5m81.6 0c0 7.456-6.044 13.5-13.5 13.5s-13.5-6.044-13.5-13.5m54 0c0 7.456-6.044 13.5-13.5 13.5s-13.5-6.044-13.5-13.5m54 0c0 7.456-6.044 13.5-13.5 13.5s-13.5-6.044-13.5-13.5"/>
      </g>
      <g transform="translate(28.8 62.6)" fill="#A0A0A0" fill-opacity=".988">
        <ellipse cx="8.472" cy="24.6" rx="2.421" ry="2.4"/>
        <ellipse cx="38.728" cy="24.6" rx="2.421" ry="2.4"/>
        <ellipse cx="8.472" cy="17.4" rx="2.421" ry="2.4"/>
        <ellipse cx="38.728" cy="17.4" rx="2.421" ry="2.4"/>
        <ellipse cx="8.472" cy="10.2" rx="2.421" ry="2.4"/>
        <ellipse cx="38.728" cy="10.2" rx="2.421" ry="2.4"/>
        <ellipse cx="8.472" cy="3" rx="2.421" ry="2.4"/>
        <ellipse cx="38.728" cy="3" rx="2.421" ry="2.4"/>
        <ellipse cx="2.421" cy="13.8" rx="2.421" ry="2.4"/>
        <ellipse cx="14.523" cy="15.6" rx="2.421" ry="2.4"/>
        <ellipse cx="20.574" cy="11.4" rx="2.421" ry="2.4"/>
        <ellipse cx="26.626" cy="11.4" rx="2.421" ry="2.4"/>
        <ellipse cx="32.677" cy="15.6" rx="2.421" ry="2.4"/>
        <ellipse cx="44.779" cy="13.8" rx="2.421" ry="2.4"/>
        <ellipse cx="2.421" cy="6.6" rx="2.421" ry="2.4"/>
        <ellipse cx="14.523" cy="8.4" rx="2.421" ry="2.4"/>
        <ellipse cx="20.574" cy="4.2" rx="2.421" ry="2.4"/>
        <ellipse cx="26.626" cy="4.2" rx="2.421" ry="2.4"/>
        <ellipse cx="32.677" cy="8.4" rx="2.421" ry="2.4"/>
        <ellipse cx="44.779" cy="6.6" rx="2.421" ry="2.4"/>
        <ellipse cx="2.421" cy="21" rx="2.421" ry="2.4"/>
        <ellipse cx="14.523" cy="22.8" rx="2.421" ry="2.4"/>
        <ellipse cx="20.574" cy="18.6" rx="2.421" ry="2.4"/>
        <ellipse cx="26.626" cy="18.6" rx="2.421" ry="2.4"/>
        <ellipse cx="32.677" cy="22.8" rx="2.421" ry="2.4"/>
        <ellipse cx="44.779" cy="21" rx="2.421" ry="2.4"/>
      </g>
      <path fill="#FFF" d="M12.6 42h2l-2 4z"/>
      <g stroke="#171717">
        <path d="M24.03 28C16.01 33.568 12 45.302 12 63.2" stroke-width="1.8"/>
        <path d="M79.97 28C87.99 33.568 92 45.302 92 63.2" stroke-width="1.6"/>
      </g>
    </g>
    <g stroke="#171717">
      <path stroke-width="1.8" stroke-linejoin="round" d="M35.23 146.4v70.607h111.34V160.88h-27.09L90.9 146.4v14.484L62.914 146.4v14.494z"/>
      <path stroke-width=".8" stroke-linejoin="round" d="M56.294 180.793h12.639v8.447H56.294zM74.95 180.793h12.639v8.447H74.95zM92.404 180.793h12.639v8.447H92.404zM110.459 180.793h12.639v8.447h-12.639zM56.294 191.654h12.639v8.447H56.294zM74.95 191.654h12.639v8.447H74.95zM92.404 191.654h12.639v8.447H92.404zM110.459 191.654h12.639v8.447h-12.639z"/>
      <path d="M156.8 198.895h-9.63M132.8 160.83v-9.63M156.8 206.739h-9.63" stroke-width="1.8"/>
    </g>
    <path d="M88 216.8v9.6M94.4 216.8v9.6" stroke="#171717" stroke-width="1.8"/>
    <path d="M163.2 198.4h9.6a6.4 6.4 0 0 0 6.4-6.4V64.8a6.4 6.4 0 0 0-6.4-6.4h-15.2" stroke="#171717" stroke-width=".8" stroke-dasharray="1.600000023841858,1.600000023841858,1.600000023841858,1.600000023841858"/>
    <path fill="#FFF" d="M149.6 99.2h60v56h-60z"/>
    <path d="M151.072 136h1.808c1.072 0 1.808.72 1.808 1.896v1.808c0 1.176-.736 1.896-1.808 1.896h-1.808V136zm1.808.608h-1.192v4.384h1.192c.664 0 1.192-.44 1.192-1.288v-1.808c0-.848-.528-1.28-1.192-1.288zm3.936 2.464v1.92h2.568v.608H156.2V136h3.184v.608h-2.568v1.856h2.008v.608h-2.008zm5.792-3.152c1.024 0 1.736.656 1.8 1.736h-.616c-.064-.744-.56-1.128-1.184-1.128-.664 0-1.192.44-1.192 1.288v1.968c0 .848.528 1.288 1.192 1.288.624 0 1.12-.384 1.184-1.128h.616c-.064 1.08-.776 1.736-1.8 1.736-1.072 0-1.808-.72-1.808-1.896v-1.968c0-1.176.736-1.896 1.808-1.896zm6.36 5.68l-.512-1.576h-2.032l-.512 1.576h-.624l1.8-5.6h.704l1.8 5.6h-.624zm-.696-2.144l-.832-2.6-.832 2.6h1.664zm3.888-.392h-.888v2.536h-.616V136h1.904c1.192 0 1.616.792 1.616 1.536 0 .68-.352 1.384-1.312 1.512l1.496 2.552h-.712l-1.488-2.536zm1.392-1.528c0-.536-.36-.928-.992-.928h-1.288v1.864h1.288c.632 0 .992-.4.992-.936zm1.904 4.064V136h1.864c1.192 0 1.616.792 1.616 1.536 0 .544-.256.976-.616 1.2.512.256.752.784.752 1.296 0 .776-.416 1.568-1.616 1.568h-2zm2-2.528h-1.384v1.92h1.384c.608 0 .992-.36.992-.96s-.384-.96-.992-.96zm.856-1.536c0-.536-.36-.928-.992-.928h-1.248v1.856h1.248c.632 0 .992-.392.992-.928zm4.912 2.248v-1.968c0-.848-.528-1.288-1.192-1.288-.664 0-1.192.44-1.192 1.288v1.968c0 .848.528 1.288 1.192 1.288.664 0 1.192-.44 1.192-1.288zm.616-1.968v1.968c0 1.176-.736 1.896-1.808 1.896s-1.808-.72-1.808-1.896v-1.968c0-1.176.736-1.896 1.808-1.896s1.808.72 1.808 1.896zm4.864-1.816v5.6h-.616l-2.384-4.408v4.408h-.616V136h.616l2.384 4.408V136h.616zm4.656.608h-1.288v4.384h1.288v.608h-3.192v-.608h1.288v-4.384h-1.288V136h3.192v.608zm5.056 4.992h-3.656v-.608l2.896-4.384H194.8V136h3.576v.608l-2.896 4.384h2.936v.608zm2.176-2.528v1.92h2.568v.608h-3.184V136h3.184v.608h-2.568v1.856h2.008v.608h-2.008zm3.984-3.072h1.808c1.072 0 1.808.72 1.808 1.896v1.808c0 1.176-.736 1.896-1.808 1.896h-1.808V136zm1.808.608h-1.192v4.384h1.192c.664 0 1.192-.44 1.192-1.288v-1.808c0-.848-.528-1.28-1.192-1.288zM168.16 151.6V146h1.864c1.192 0 1.616.792 1.616 1.536 0 .544-.256.976-.616 1.2.512.256.752.784.752 1.296 0 .776-.416 1.568-1.616 1.568h-2zm2-2.528h-1.384v1.92h1.384c.608 0 .992-.36.992-.96s-.384-.96-.992-.96zm.856-1.536c0-.536-.36-.928-.992-.928h-1.248v1.856h1.248c.632 0 .992-.392.992-.928zm3.576 1.528h-.888v2.536h-.616V146h1.904c1.192 0 1.616.792 1.616 1.536 0 .68-.352 1.384-1.312 1.512l1.496 2.552h-.712l-1.488-2.536zm1.392-1.528c0-.536-.36-.928-.992-.928h-1.288v1.864h1.288c.632 0 .992-.4.992-.936zm5.216-.928h-1.288v4.384h1.288v.608h-3.192v-.608h1.288v-4.384h-1.288V146h3.192v.608zm5.072-.608v5.6h-.616l-2.384-4.408v4.408h-.616V146h.616l2.384 4.408V146h.616zm2.16 3.072v1.92H191v.608h-3.184V146H191v.608h-2.568v1.856h2.008v.608h-2.008z" fill="#171717"/>
    <g transform="translate(166.2 104.8)">
      <mask id="d" fill="#fff">
        <use xlink:href="#c"/>
      </mask>
      <use stroke="#000" stroke-width=".6" stroke-linejoin="round" xlink:href="#c"/>
      <path d="M12.435 7.518a4.464 4.464 0 1 1-8.928 0m-.199 0a4.464 4.464 0 0 1-8.928 0m26.983 0a4.464 4.464 0 0 1-8.928 0m17.857 0a4.464 4.464 0 0 1-8.929 0m17.857 0a4.464 4.464 0 0 1-8.928 0" stroke="#171717" stroke-width=".6" mask="url(#d)"/>
    </g>
    <path stroke="#171717" stroke-width=".6" fill="#171717" stroke-linejoin="round" d="M158.4 62l-2.4-3.6 2.4-3.6z"/>
    <path stroke="#000" stroke-width=".6" fill="#000" stroke-linejoin="round" d="M136.4 142.4l-3.6 2.4-3.6-2.4z"/>
    <path d="M164 206.4h8.8a6.4 6.4 0 0 1 6.4 6.4V244" stroke="#171717" stroke-width=".8" stroke-dasharray="1.6,1.6,1.6,1.6"/>
    <path d="M90.4 112v3.2a6.4 6.4 0 0 0 6.4 6.4h29.6a6.4 6.4 0 0 1 6.4 6.4v14.4" stroke="#000" stroke-width=".8"/>
    <path d="M80.8 286.4h20.496M90.933 286.703v26.5" stroke="#000" stroke-width=".6"/>
    <g stroke="#171717" stroke-width="1.8">
      <path d="M80 272h21.6v57.6H80zM90.8 329.6v4.8M94.2 262.4v9.6M87.8 262.4v9.6"/>
    </g>
    <g stroke="#A0A0A0" stroke-dasharray="3,1.2" stroke-width=".6">
      <path d="M82.5 286.7v26.407M84.3 286.7v26.407M86.1 286.7v26.407M87.9 286.7v26.407M89.7 286.7v26.407"/>
    </g>
    <g stroke="#171717" stroke-dasharray="3,1.2" stroke-width=".6">
      <path d="M92.1 286.7v26.407M93.9 286.7v26.407M95.7 286.7v26.407M97.5 286.7v26.407M99.3 286.7v26.407"/>
    </g>
    <g fill="#171717">
      <path d="M103.986 244.11v-2.71h.678v6.16h-.678v-2.78h-2.622v2.78h-.678v-6.16h.678v2.71zM109.242 248.1v.5h-3.034v-.768c0-.205.034-.383.102-.534.069-.152.166-.282.292-.39.125-.11.278-.2.457-.273.18-.072.382-.134.608-.185.38-.086.654-.207.823-.365a.767.767 0 0 0 .252-.583v-.038c0-.115-.019-.228-.057-.34a.867.867 0 0 0-.49-.515 1.153 1.153 0 0 0-.451-.08c-.329 0-.583.1-.765.301-.181.2-.272.468-.272.8v.282h-.537v-.32c0-.205.034-.401.102-.589a1.425 1.425 0 0 1 .794-.845c.196-.085.422-.128.678-.128.26 0 .486.04.678.119.192.079.352.183.48.313s.223.278.285.442c.062.164.093.332.093.502v.116c0 .34-.107.632-.32.873-.213.241-.555.413-1.024.515-.41.09-.71.208-.902.356-.192.147-.288.361-.288.643v.192h2.496z"/>
    </g>
    <path stroke="#171717" stroke-width="1.2" stroke-linejoin="round" d="M93.6 232.8h23.2V256H93.6z"/>
    <g fill="#171717">
      <path d="M84.282 247.14v.5h-3.034v-.768c0-.205.034-.383.102-.534.069-.152.166-.282.292-.39.125-.11.278-.2.457-.273.18-.072.382-.134.608-.185.38-.086.654-.207.823-.365a.767.767 0 0 0 .252-.583v-.038c0-.115-.019-.228-.057-.34a.867.867 0 0 0-.49-.515 1.153 1.153 0 0 0-.451-.08c-.329 0-.583.1-.765.301-.181.2-.272.468-.272.8v.282h-.537v-.32c0-.205.034-.401.102-.589a1.425 1.425 0 0 1 .794-.845c.196-.085.422-.128.678-.128.26 0 .486.04.678.119.192.079.352.183.48.313s.223.278.285.442c.062.164.093.332.093.502v.116c0 .34-.107.632-.32.873-.213.241-.555.413-1.024.515-.41.09-.71.208-.902.356-.192.147-.288.361-.288.643v.192h2.496zM72.31 241.152c1.127 0 1.91.722 1.98 1.91h-.677c-.07-.819-.616-1.241-1.303-1.241-.73 0-1.31.484-1.31 1.417v2.164c0 .933.58 1.417 1.31 1.417.687 0 1.232-.422 1.303-1.24h.677c-.07 1.187-.853 1.909-1.98 1.909-1.179 0-1.988-.792-1.988-2.086v-2.164c0-1.294.81-2.086 1.988-2.086zm6.627 4.25v-2.164c0-.933-.581-1.417-1.311-1.417s-1.312.484-1.312 1.417v2.164c0 .933.581 1.417 1.312 1.417.73 0 1.31-.484 1.31-1.417zm.677-2.164v2.164c0 1.294-.81 2.086-1.988 2.086-1.18 0-1.99-.792-1.99-2.086v-2.164c0-1.294.81-2.086 1.99-2.086 1.179 0 1.988.792 1.988 2.086z"/>
    </g>
    <path stroke="#171717" stroke-width="1.2" stroke-linejoin="round" d="M65.6 232.8h23.2V256H65.6z"/>
    <circle stroke="#000" stroke-width="1.8" cx="90.8" cy="412.4" r="52.4"/>
    <path d="M120 442.4c8-5.6 12-17.4 12-35.4M64.2 442.4c-8-5.6-12-17.4-12-35.4" stroke="#000" stroke-width="1.8" style="mix-blend-mode:multiply"/>
    <path fill="#FFF" d="M132 407v3h1v-3z"/>
    <path d="M48.8 425.6H68M115.2 425.6h19.2" stroke="#171717" stroke-width=".6"/>
    <g transform="translate(67.2 374.4)" fill="#A0A0A0">
      <circle cx="8.4" cy="24" r="2.4"/>
      <circle cx="38.4" cy="24" r="2.4"/>
      <circle cx="8.4" cy="16.8" r="2.4"/>
      <circle cx="38.4" cy="16.8" r="2.4"/>
      <circle cx="8.4" cy="9.6" r="2.4"/>
      <circle cx="38.4" cy="9.6" r="2.4"/>
      <circle cx="8.4" cy="2.4" r="2.4"/>
      <circle cx="38.4" cy="2.4" r="2.4"/>
      <circle cx="2.4" cy="13.2" r="2.4"/>
      <circle cx="14.4" cy="15" r="2.4"/>
      <circle cx="20.4" cy="10.8" r="2.4"/>
      <circle cx="26.4" cy="10.8" r="2.4"/>
      <circle cx="32.4" cy="15" r="2.4"/>
      <circle cx="44.4" cy="13.2" r="2.4"/>
      <circle cx="2.4" cy="6" r="2.4"/>
      <circle cx="14.4" cy="7.8" r="2.4"/>
      <circle cx="20.4" cy="3.6" r="2.4"/>
      <circle cx="26.4" cy="3.6" r="2.4"/>
      <circle cx="32.4" cy="7.8" r="2.4"/>
      <circle cx="44.4" cy="6" r="2.4"/>
      <circle cx="2.4" cy="20.4" r="2.4"/>
      <circle cx="14.4" cy="22.2" r="2.4"/>
      <circle cx="20.4" cy="18" r="2.4"/>
      <circle cx="26.4" cy="18" r="2.4"/>
      <circle cx="32.4" cy="22.2" r="2.4"/>
      <circle cx="44.4" cy="20.4" r="2.4"/>
    </g>
    <path d="M75.213 424c-1.613-1.64-2.016-3.282-1.21-4.922 1.21-2.462 5.678-8.73 6.653-9.845.65-.744 1.658-1.154 3.024-1.23h10.282c1.175-.036 2.184.374 3.025 1.23 1.261 1.283 5.363 6.636 6.048 7.383.457.498 1.263.909 2.42 1.231 2.418.41 4.031 1.025 4.838 1.846 1.21 1.23 1.21 4.307 0 4.307h-35.08z" stroke="#000" stroke-width=".6"/>
    <circle stroke="#171717" stroke-width=".6" fill="#FFF" cx="80.4" cy="424.4" r="3.6"/>
    <circle stroke="#171717" stroke-width=".6" fill="#FFF" cx="102.8" cy="424.4" r="3.6"/>
    <g>
      <path d="M167.008 282.312c0 .992-.512 1.712-1.808 1.712h-1.192v2.176h-.616v-5.6h1.808c1.296 0 1.808.72 1.808 1.712zm-.632 0c0-.608-.312-1.104-1.176-1.104h-1.192v2.208h1.192c.864 0 1.176-.496 1.176-1.104zm4.688 2.072v-1.968c0-.848-.528-1.288-1.192-1.288-.664 0-1.192.44-1.192 1.288v1.968c0 .848.528 1.288 1.192 1.288.664 0 1.192-.44 1.192-1.288zm.616-1.968v1.968c0 1.176-.736 1.896-1.808 1.896s-1.808-.72-1.808-1.896v-1.968c0-1.176.736-1.896 1.808-1.896s1.808.72 1.808 1.896zm2.744-1.208h-1.496v-.608h3.608v.608h-1.496v4.992h-.616v-4.992zm6.704 4.992l-.512-1.576h-2.032l-.512 1.576h-.624l1.8-5.6h.704l1.8 5.6h-.624zm-.696-2.144l-.832-2.6-.832 2.6h1.664zm2.32 2.144v-5.6h1.864c1.192 0 1.616.792 1.616 1.536 0 .544-.256.976-.616 1.2.512.256.752.784.752 1.296 0 .776-.416 1.568-1.616 1.568h-2zm2-2.528h-1.384v1.92h1.384c.608 0 .992-.36.992-.96s-.384-.96-.992-.96zm.856-1.536c0-.536-.36-.928-.992-.928h-1.248v1.856h1.248c.632 0 .992-.392.992-.928zm2.264 4.064v-5.6h.616v4.992h2.568v.608h-3.184zm5.424-2.528v1.92h2.568v.608h-3.184v-5.6h3.184v.608h-2.568v1.856h2.008v.608h-2.008zM170.12 291.4l.784 3.488.56-4.288h.6l-.8 5.6h-.552l-.84-3.616-.84 3.616h-.552l-.8-5.6h.6l.56 4.288.784-3.488h.496zm6.144 4.8l-.512-1.576h-2.032l-.512 1.576h-.624l1.8-5.6h.704l1.8 5.6h-.624zm-.696-2.144l-.832-2.6-.832 2.6h1.664zm3.72-2.848h-1.496v-.608h3.608v.608h-1.496v4.992h-.616v-4.992zm4.28 2.464v1.92h2.568v.608h-3.184v-5.6h3.184v.608h-2.568v1.856h2.008v.608h-2.008zm5.616-.008h-.888v2.536h-.616v-5.6h1.904c1.192 0 1.616.792 1.616 1.536 0 .68-.352 1.384-1.312 1.512l1.496 2.552h-.712l-1.488-2.536zm1.392-1.528c0-.536-.36-.928-.992-.928h-1.288v1.864h1.288c.632 0 .992-.4.992-.936z" fill="#171717"/>
      <g transform="translate(169.2 250.4)">
        <mask id="f" fill="#fff">
          <use xlink:href="#e"/>
        </mask>
        <path stroke="#171717" stroke-width=".6" d="M.12-.3h19.56l-4.476 24H4.596L.12-.3z"/>
        <path d="M10.884 3.459a2.982 2.982 0 0 1-5.964 0m-.133 0a2.982 2.982 0 0 1-5.964 0m18.025 0a2.982 2.982 0 0 1-5.964 0m11.929 0a2.982 2.982 0 0 1-5.965 0m11.929 0a2.982 2.982 0 0 1-5.964 0" stroke="#171717" stroke-width=".6" mask="url(#f)"/>
      </g>
    </g>
    <path d="M94.4 228v3.2M94.4 257.6v3.2M88 228v3.2M88 257.6v3.2" stroke="#171717" stroke-width=".8"/>
    <path d="M91.2 337.6v16.819" stroke="#7F7F7F" stroke-width=".8"/>
    <path stroke="#7F7F7F" stroke-width=".6" fill="#7F7F7F" stroke-linejoin="round" d="M94.4 352.8l-3.6 2.4-3.6-2.4z"/>
    <path d="M27.2 412.8l-20.048-.001a6.4 6.4 0 0 1-6.4-6.399L.697 64.8a6.4 6.4 0 0 1 6.399-6.401L24.8 58.4" stroke="#000" stroke-width=".8"/>
    <path stroke="#000" stroke-width=".6" fill="#000" stroke-linejoin="round" d="M23.2 62l2.4-3.6-2.4-3.6z"/>
    <path d="M80 313h22" stroke="#171717" stroke-width=".6"/>
    <g fill="#171717">
      <path d="M47.347 58h7.306a.25.25 0 0 1 .237.33l-3.653 10.958a.25.25 0 0 1-.474 0L47.11 58.33a.25.25 0 0 1 .237-.329zM126.747 58h7.306a.25.25 0 0 1 .237.33l-3.653 10.958a.25.25 0 0 1-.474 0L126.51 58.33a.25.25 0 0 1 .237-.329z"/>
    </g>
    <g fill="#171717">
      <path d="M48.647 416h7.306a.25.25 0 0 0 .237-.33l-3.653-10.958a.25.25 0 0 0-.474 0L48.41 415.67a.25.25 0 0 0 .237.329zM127.847 416.54h7.306a.25.25 0 0 0 .237-.329l-3.653-10.96a.25.25 0 0 0-.474 0l-3.653 10.96a.25.25 0 0 0 .237.329z"/>
    </g>
    <circle stroke="#FD6400" cx="160.5" cy="364.5" r="10.5"/>
    <path fill="#FD6400" d="M161.97 361.6l-2.71 3.71h1.85v-1.45h1.05v1.45h.73v1.01h-.73v1.73h-1.05v-1.73H158v-1.01l3.15-4.31z"/>
    <g transform="rotate(180 29.5 132.5)">
      <circle fill="#FD6400" cx="1" cy="6" r="1"/>
      <path d="M1 6l10-6" stroke="#FD6400"/>
    </g>
    <g transform="translate(141 371)">
      <circle fill="#FD6400" cx="1" cy="6" r="1"/>
      <path d="M1 6l10-6" stroke="#FD6400"/>
    </g>
    <g transform="translate(200 191)">
      <circle stroke="#FD6400" cx="10.5" cy="10.5" r="10.5"/>
      <path d="M9.41 9.99l-.72.74C8.26 10.34 8 9.78 8 9.15 8 7.96 8.96 7 10.15 7s2.15.96 2.15 2.15c0 .65-.26 1.19-.93 1.9l-1.94 2.04h2.87v1.01H8v-1.01l2.58-2.71c.47-.49.67-.77.67-1.23 0-.62-.45-1.14-1.1-1.14-.65 0-1.1.52-1.1 1.14 0 .33.13.63.36.84z" fill="#FD6400"/>
    </g>
    <g transform="rotate(135 58.564 142.143)">
      <circle fill="#FD6400" cx="5" cy="5" r="1"/>
      <path d="M.5.5l4 4" stroke="#FD6400" stroke-linecap="square"/>
    </g>
    <g transform="translate(153)">
      <circle stroke="#FD6400" cx="10.5" cy="10.5" r="10.5"/>
      <path fill="#FD6400" d="M8 12.99h1.82V8.42l-1 1-.71-.71L9.82 7h1.05v5.99h1.82V14H8z"/>
    </g>
    <g transform="translate(144 16)">
      <circle fill="#FD6400" cx="1" cy="5" r="1"/>
      <path d="M1 5l10-5" stroke="#FD6400"/>
    </g>
    <g transform="translate(29 260)">
      <circle stroke="#FD6400" fill="#FFF" cx="10.5" cy="10.5" r="10.5"/>
      <path d="M10 10.792v-.943h.037c.484-.02.819-.438.819-.934 0-.505-.354-.933-.856-.933s-.847.428-.847.933h-.976C8.177 7.855 8.986 7 10 7c1.014 0 1.833.856 1.833 1.915 0 .554-.224 1.04-.586 1.38.455.38.753.954.753 1.615 0 1.157-.893 2.09-2 2.09s-2-.933-2-2.09h.977c0 .602.418 1.108 1.023 1.108s1.023-.506 1.023-1.108c0-.584-.4-1.09-.976-1.118H10z" fill="#FD6400"/>
    </g>
  </g>
</svg>