<svg id="Layer_1" xmlns="http://www.w3.org/2000/svg" viewBox="0 0 225.33 225.33"><style></style><path d="M225.33 220.54v-64.91l-42.97-42.97 42.97-42.97V0h-69.72l-42.73 43.19L69.7 0H0v69.7l42.97 42.97L0 155.63v69.7h69.7l42.97-42.97 42.97 42.97h69.7v-4.79c-.01.01-.01 0-.01 0zm-9.57-157.61H162.4V9.57h53.35v53.36zm-102.83-6.16l39.9-40.34V72.5h56.16l-40.16 40.16 46.93 46.93v49.39L72.5 65.73V16.34l40.43 40.43zm-47.2 158.99H9.57V159.6l40.16-40.16 56.16 56.16-40.16 40.16zm50.32-43.55l-62.93-62.93L9.57 65.73V9.57h53.35V69.7l146.06 146.06H159.6l-43.55-43.55z" fill="#54b2e4"/></svg>