<?xml version="1.0" encoding="utf-8"?>
<!-- Generator: Adobe Illustrator 19.0.0, SVG Export Plug-In . SVG Version: 6.00 Build 0)  -->
<svg version="1.1" id="Layer_1" xmlns="http://www.w3.org/2000/svg" xmlns:xlink="http://www.w3.org/1999/xlink" x="0px" y="0px"
	 viewBox="0 0 1000 297.3" style="enable-background:new 0 0 1000 297.3;" xml:space="preserve">
<style type="text/css">
	.st0{fill:#35B8FF;}
</style>
<g>
	<g>
		<path class="st0" d="M439.8,222.5l-21.5-65v65h-26.1V110.7h33.4l24.1,71.8l24.1-71.8h33.4v111.7H481v-65l-21.5,65H439.8z"/>
		<path class="st0" d="M664.2,152.2l37.4-41.4H738L688.6,162l51,60.5h-35.2l-33.2-42.3l-6.9,7.2v35.1h-26.5V110.7h26.5V152.2z"/>
		<path class="st0" d="M914.6,160l10.3,15.6l-0.1-20.8v-44.1h26.5v111.7h-24.5l-34-49.3l-10.3-15.6l0.1,20.8v44.1h-26.5V110.7h24.5
			L914.6,160z"/>
		<path class="st0" d="M1000,222.5h-26.5V110.7h26.5V222.5z"/>
		<polygon class="st0" points="584.6,110.7 560.2,110.7 517.7,222.5 546,222.5 554.1,199.1 582.2,199.1 574.7,177.6 561.7,177.6 
			572.4,146.7 598.8,222.5 627.1,222.5 		"/>
		<polygon class="st0" points="803,110.7 778.7,110.7 736.1,222.5 764.5,222.5 772.5,199.1 800.7,199.1 793.2,177.6 780.1,177.6 
			790.9,146.7 817.2,222.5 845.6,222.5 		"/>
	</g>
	<g>
		<path class="st0" d="M139.6,22.2c-32.2,0-58.5,26.2-58.5,58.5c0,5.8,0.9,11.5,2.5,16.8h30.8c-3.2-4.8-5.1-10.6-5.1-16.8
			c0-16.7,13.6-30.2,30.3-30.2c16.7,0,30.2,13.6,30.2,30.2c0,16.7-13.6,30.2-30.2,30.2H28.3l9.8,28.2h101.6
			c32.2,0,58.5-26.2,58.5-58.5C198.1,48.4,171.8,22.2,139.6,22.2z"/>
		<path class="st0" d="M259.5,0c-27.2,0-51.5,12.1-68.1,31.2c7,7.3,12.4,16,15.8,25.8c11.1-17.2,30.4-28.7,52.3-28.7
			c34.3,0,62.2,27.9,62.2,62.2c0,34.3-27.9,62.2-62.2,62.2H0l9.8,28.2h249.7c49.8,0,90.4-40.5,90.4-90.4C349.9,40.6,309.3,0,259.5,0
			z"/>
		<path class="st0" d="M210.7,194.2H57.2l9.8,28.2h97.8h45.9c12.9,0,23.3,10.5,23.3,23.3c0,12.9-10.5,23.3-23.3,23.3
			c-12.9,0-23.3-10.5-23.3-23.3c0-3.5,0.8-6.9,2.2-9.9h-29.5c-0.6,3.2-1,6.5-1,9.9c0,28.4,23.1,51.6,51.6,51.6
			c28.4,0,51.6-23.1,51.6-51.6C262.2,217.3,239.1,194.2,210.7,194.2z"/>
	</g>
</g>
</svg>
