<svg width="1258" height="630" viewBox="0 0 1258 630" xmlns="http://www.w3.org/2000/svg" xmlns:xlink="http://www.w3.org/1999/xlink">
  <defs>
    <path d="M0 0h461H0z" id="a"/>
    <path d="M0 0h461H0z" id="c"/>
    <path d="M0 0h147H0z" id="e"/>
    <path id="g" d="M.0109.436H146.962v.9995H.0109z"/>
    <path id="i" d="M.999 0H4v37.001H.999z"/>
    <path id="k" d="M0 0h11.999v37.001H0z"/>
    <path id="m" d="M.899.088h4.652v15.484H.899z"/>
    <path d="M.991 29.277h58.428C59.419 13.138 46.34.055 30.206.055 14.07.055.991 13.138.991 29.277z" id="o"/>
    <path d="M.771 24.277h46.867C47.638 11.332 37.147.838 24.206.838 11.263.838.771 11.332.771 24.277z" id="q"/>
    <path d="M.555 18.277h35.302c0-9.752-7.903-17.654-17.651-17.654C8.456.623.555 8.525.555 18.277z" id="s"/>
    <path d="M.336 12.277h23.736c0-6.557-5.313-11.87-11.866-11.87C5.651.407.336 5.72.336 12.277z" id="u"/>
    <path d="M.118 6.277h12.174c0-3.363-2.726-6.088-6.088-6.088C2.843.189.118 2.914.118 6.277z" id="w"/>
    <path d="M.044 29.277h58.43c0-16.139-13.08-29.222-29.215-29.222C13.124.055.044 13.138.044 29.277z" id="y"/>
    <path d="M.827 24.277h46.865C47.692 11.332 37.2.838 24.259.838 11.316.838.827 11.332.827 24.277z" id="A"/>
    <path d="M.608 18.277h35.304c0-9.752-7.905-17.654-17.653-17.654C8.511.623.608 8.525.608 18.277z" id="C"/>
    <path d="M.391 12.277h23.736c0-6.557-5.314-11.87-11.869-11.87C5.705.407.391 5.72.391 12.277z" id="E"/>
    <path d="M.173 6.277h12.173c0-3.363-2.724-6.088-6.087-6.088C2.898.189.173 2.914.173 6.277z" id="G"/>
    <path d="M29.72 30.18C29.72 14.043 16.639.96.505.96L29.72 30.18z" id="I"/>
    <path d="M23.938 24.18C23.938 11.237 13.446.743.505.743L23.938 24.18z" id="K"/>
    <path d="M18.157 18.18C18.157 8.43 10.253.526.505.526L18.157 18.18z" id="M"/>
    <path d="M12.373 12.18C12.373 5.624 7.059.31.505.31l11.868 11.87z" id="O"/>
    <path d="M6.591 6.18C6.591 2.819 3.867.092.505.092L6.591 6.18z" id="Q"/>
    <path d="M.299 30.18L29.513.96C13.38.96.299 14.043.299 30.18z" id="S"/>
    <path d="M.081 24.18L23.513.743C10.572.743.081 11.237.081 24.18z" id="U"/>
    <path d="M.863 18.18L18.513.526C8.765.526.863 8.43.863 18.18z" id="W"/>
    <path d="M.645 12.18L12.513.31C5.958.31.645 5.624.645 12.18z" id="Y"/>
    <path d="M.427 6.18L6.513.092C3.153.092.427 2.819.427 6.18z" id="aa"/>
    <path id="ac" d="M.107.273h14.564v22.204H.107z"/>
    <path id="ae" d="M.506.854h4.143v10.443H.506z"/>
    <path id="ag" d="M.274.477h22.232V37.44H.274z"/>
    <path id="ai" d="M.638.097h3.015v37.415H.638z"/>
    <path id="ak" d="M.569.097h12.217v37.415H.569z"/>
    <path id="am" d="M.293.344h14.562v22.208H.293z"/>
    <path id="ao" d="M.689.927h4.143v10.444H.689z"/>
    <path id="aq" d="M.458.551H22.69v36.961H.458z"/>
    <path id="as" d="M.686.814h4.69v15.485H.686z"/>
    <path d="M.843 30.002h58.429c0-16.138-13.079-29.22-29.215-29.22C13.923.782.843 13.864.843 30.002z" id="au"/>
    <path d="M.624 24.002h46.868C47.492 11.057 36.999.565 24.058.565 11.116.565.624 11.057.624 24.002z" id="aw"/>
    <path d="M.407 18.002h35.301c0-9.751-7.903-17.654-17.651-17.654C8.31.348.407 8.251.407 18.002z" id="ay"/>
    <path d="M.189 12.002h23.737c0-6.554-5.312-11.871-11.869-11.871C5.502.131.189 5.448.189 12.002z" id="aA"/>
    <path d="M.971 7.002h12.174c0-3.361-2.726-6.087-6.087-6.087C3.697.915.971 3.641.971 7.002z" id="aC"/>
    <path d="M.898 30.002h58.43c0-16.138-13.082-29.22-29.215-29.22C13.977.782.898 13.864.898 30.002z" id="aE"/>
    <path d="M.679 24.002h46.866C47.545 11.057 37.052.565 24.113.565 11.172.565.679 11.057.679 24.002z" id="aG"/>
    <path d="M.46 18.002h35.303c0-9.751-7.902-17.654-17.65-17.654C8.363.348.46 8.251.46 18.002z" id="aI"/>
    <path d="M.243 12.002h23.738c0-6.554-5.313-11.871-11.87-11.871C5.557.131.243 5.448.243 12.002z" id="aK"/>
    <path d="M.026 7.002h12.173c0-3.361-2.725-6.087-6.086-6.087C2.75.915.026 3.641.026 7.002z" id="aM"/>
    <path d="M29.573 29.907C29.573 13.768 16.493.686.358.686l29.215 29.221z" id="aO"/>
    <path d="M23.791 23.907C23.791 10.962 13.299.47.358.47l23.433 23.437z" id="aQ"/>
    <path d="M18.008 17.907C18.008 8.155 10.106.251.358.251l17.65 17.656z" id="aS"/>
    <path d="M12.225 11.907C12.225 5.35 6.912.035.358.035l11.867 11.872z" id="aU"/>
    <path d="M6.443 6.907C6.443 3.544 3.72.819.358.819l6.085 6.088z" id="aW"/>
    <path d="M.152 29.907L29.367.686C13.232.686.152 13.768.152 29.907z" id="aY"/>
    <path d="M.934 23.907L24.367.47C11.425.47.934 10.962.934 23.907z" id="ba"/>
    <path d="M.716 17.907L18.367.251C8.619.251.716 8.155.716 17.907z" id="bc"/>
    <path d="M.499 11.907L12.367.035C5.812.035.499 5.35.499 11.907z" id="be"/>
    <path d="M.28 6.907L6.367.819C3.006.819.28 3.544.28 6.907z" id="bg"/>
    <path id="bi" d="M.713.552h15.156v25.195H.713z"/>
    <path id="bk" d="M.593.024h15.156v25.195H.593z"/>
    <path id="bm" d="M.849.269L6.7 10.351 12.552.269z"/>
    <path id="bo" d="M.415 10.625l11.657-.055L6.241.476z"/>
    <path id="bq" d="M4.828 11.779l7.516-8.913L.879.762z"/>
    <path id="bs" d="M.599 8.46l11.303 3.012L8.875.227z"/>
    <path id="bu" d="M.502 11.472l11.301-3.01L3.529.227z"/>
  </defs>
  <g fill="none" fill-rule="evenodd">
    <path fill="#FEFEFE" d="M.413 629.1h1256.938V.631H.413z"/>
    <path d="M726.085 506.6191c1.706 0 3.09-1.385 3.089-3.09l-.007-222.156.03-12.139c0-1.592.534-3.059 1.43-4.232 1.273-1.665 3.281-2.74 5.539-2.74l86.181-.003" stroke="#00ADEE"/>
    <path d="M822.5655 256.5381l-89.688.003c-3.286 0-6.207 1.563-8.059 3.987-1.306 1.707-2.081 3.842-2.081 6.156l.008 234.194v2.693c0 1.705 1.383 3.09 3.09 3.09" stroke="#EC1D24"/>
    <path d="M811.085 506.6162c1.706 0 3.09-1.385 3.089-3.09l-.007-222.156.03-12.139c0-1.592.534-3.059 1.43-4.232 1.273-1.665 3.281-2.74 5.539-2.74l86.181-.003" stroke="#00ADEE"/>
    <path d="M907.5655 256.5352l-89.688.003c-3.286 0-6.207 1.563-8.059 3.987-1.306 1.707-2.081 3.842-2.081 6.156l.008 234.194v2.693c0 1.705 1.383 3.09 3.09 3.09" stroke="#EC1D24"/>
    <g transform="translate(44 218)">
      <mask id="b" fill="#fff">
        <use xlink:href="#a"/>
      </mask>
      <path fill="#FEFEFE" mask="url(#b)" d="M-5 5h471V-5H-5z"/>
    </g>
    <path d="M505.0001 218h-461" stroke="#221E1F"/>
    <g transform="translate(505 218)">
      <mask id="d" fill="#fff">
        <use xlink:href="#c"/>
      </mask>
      <path fill="#FEFEFE" mask="url(#d)" d="M-5 5h471V-5H-5z"/>
    </g>
    <path d="M966 218H505" stroke="#221E1F"/>
    <g transform="translate(1077 220)">
      <mask id="f" fill="#fff">
        <use xlink:href="#e"/>
      </mask>
      <path fill="#FEFEFE" mask="url(#f)" d="M-5 5h157V-5H-5z"/>
    </g>
    <g transform="translate(1077 220)">
      <mask id="h" fill="#fff">
        <use xlink:href="#g"/>
      </mask>
      <path d="M146.9629.4355H.0109" stroke="#221E1F" mask="url(#h)"/>
    </g>
    <path stroke="#221E1F" stroke-width=".5" d="M504.0001 288h-179V103.119l89.5-37.119 89.5 37.119z"/>
    <path d="M504.2012 110.1289h16.403c.554 0 .706-.762.195-.974l-106.149-44.054-106.148 44.054c-.511.212-.361.974.195.974h16.401" stroke="#221E1F" stroke-width=".5"/>
    <path d="M414.6505 66.2046v151.569" stroke="#ADBDC1" stroke-width="6"/>
    <path d="M325.0997 217.7729h179.103M325.0997 153.749h179.103" stroke="#ADBDC1" stroke-width="2" stroke-linecap="round"/>
    <path d="M1076.8115 110.854h16.402c.555 0 .708-.762.195-.974l-106.149-44.054-106.147 44.054c-.512.212-.36.974.194.974h16.403" stroke="#221E1F" stroke-width=".5"/>
    <path stroke="#221E1F" stroke-width=".5" d="M1076.8115 288.1064h-179.102v-185.115l89.55-37.166 89.552 37.166z"/>
    <path d="M987.2607 66.9312v151.567" stroke="#ADBDC1" stroke-width="6"/>
    <path d="M897.71 218.498h179.102M897.71 154.4741h179.102" stroke="#ADBDC1" stroke-width="2" stroke-linecap="round"/>
    <path d="M1026 227v21M1029 227v21" stroke="#221E1F"/>
    <g transform="translate(1016 247)">
      <mask id="j" fill="#fff">
        <use xlink:href="#i"/>
      </mask>
      <path fill="#221E1F" mask="url(#j)" d="M-4 42H9V-5H-4z"/>
    </g>
    <g transform="translate(1021 247)">
      <mask id="l" fill="#fff">
        <use xlink:href="#k"/>
      </mask>
      <path fill="#221E1F" mask="url(#l)" d="M-5 42h22V-5H-5z"/>
    </g>
    <path d="M158.0733 507.604c1.707 0 3.09-1.384 3.09-3.09V282.359l.031-12.14c0-1.592.533-3.058 1.43-4.232 1.273-1.665 3.281-2.739 5.539-2.739h86.181M444.6368 280.1841h-101.533c-1.679 0-3.041-1.362-3.041-3.043v-10.863c0-1.679-1.363-3.042-3.042-3.042h-22.731" stroke="#EC1D24"/>
    <path d="M444.6368 274.4331h-95.897c-1.681 0-3.043-1.361-3.043-3.042v-10.863c0-1.68-1.363-3.043-3.042-3.043h-28.365" stroke="#00ADEE"/>
    <path d="M339.5049 153.4062v71.139" stroke="#221E1F"/>
    <path d="M377.2051 217.5029v7.043M453.2589 217.5029v7.043" stroke="#939597" stroke-width="2" stroke-linecap="square"/>
    <path d="M490.5137 153.4062v71.139M339.5049 224.5464h151.009" stroke="#221E1F"/>
    <g transform="translate(413 184)">
      <mask id="n" fill="#fff">
        <use xlink:href="#m"/>
      </mask>
      <path fill="#221E1F" mask="url(#n)" d="M-4.102 20.572H10.55V-4.912H-4.102z"/>
    </g>
    <g transform="translate(347 184)">
      <mask id="p" fill="#fff">
        <use xlink:href="#o"/>
      </mask>
      <path fill="#FEFEFE" mask="url(#p)" d="M-4.01 34.277h68.429V-4.945H-4.01z"/>
    </g>
    <path d="M347.9903 213.2769c0-16.138 13.079-29.222 29.215-29.222 16.135 0 29.214 13.084 29.214 29.222" stroke="#EC1D24"/>
    <g transform="translate(353 189)">
      <mask id="r" fill="#fff">
        <use xlink:href="#q"/>
      </mask>
      <path fill="#FEFEFE" mask="url(#r)" d="M-4.228 29.277h56.866V-4.161H-4.228z"/>
    </g>
    <path d="M353.7715 213.2769c0-12.945 10.491-23.438 23.434-23.438 12.941 0 23.432 10.493 23.432 23.438" stroke="#EC1D24"/>
    <g transform="translate(359 195)">
      <mask id="t" fill="#fff">
        <use xlink:href="#s"/>
      </mask>
      <path fill="#FEFEFE" mask="url(#t)" d="M-4.445 23.277h45.301V-4.378H-4.445z"/>
    </g>
    <path d="M359.5547 213.2769c0-9.751 7.901-17.655 17.65-17.655 9.748 0 17.651 7.904 17.651 17.655" stroke="#EC1D24"/>
    <g transform="translate(365 201)">
      <mask id="v" fill="#fff">
        <use xlink:href="#u"/>
      </mask>
      <path fill="#FEFEFE" mask="url(#v)" d="M-4.664 17.277h33.737V-4.594H-4.664z"/>
    </g>
    <path d="M365.336 213.2769c0-6.557 5.314-11.871 11.869-11.871 6.554 0 11.868 5.314 11.868 11.871" stroke="#EC1D24"/>
    <g transform="translate(371 207)">
      <mask id="x" fill="#fff">
        <use xlink:href="#w"/>
      </mask>
      <path fill="#FEFEFE" mask="url(#x)" d="M-4.882 11.277h22.174V-4.812H-4.882z"/>
    </g>
    <path d="M371.1182 213.2769c0-3.362 2.726-6.089 6.086-6.089 3.362 0 6.088 2.727 6.088 6.089" stroke="#EC1D24"/>
    <g transform="translate(424 184)">
      <mask id="z" fill="#fff">
        <use xlink:href="#y"/>
      </mask>
      <path fill="#FEFEFE" mask="url(#z)" d="M-4.956 34.277h68.431V-4.945H-4.956z"/>
    </g>
    <path d="M424.044 213.2769c0-16.138 13.08-29.222 29.215-29.222 16.135 0 29.216 13.084 29.216 29.222" stroke="#EC1D24"/>
    <g transform="translate(429 189)">
      <mask id="B" fill="#fff">
        <use xlink:href="#A"/>
      </mask>
      <path fill="#FEFEFE" mask="url(#B)" d="M-4.174 29.277h56.866V-4.161H-4.174z"/>
    </g>
    <path d="M429.8262 213.2769c0-12.945 10.491-23.438 23.433-23.438 12.941 0 23.433 10.493 23.433 23.438" stroke="#EC1D24"/>
    <g transform="translate(435 195)">
      <mask id="D" fill="#fff">
        <use xlink:href="#C"/>
      </mask>
      <path fill="#FEFEFE" mask="url(#D)" d="M-4.392 23.277h45.303V-4.378H-4.392z"/>
    </g>
    <path d="M435.6085 213.2769c0-9.751 7.902-17.655 17.651-17.655 9.748 0 17.652 7.904 17.652 17.655" stroke="#EC1D24"/>
    <g transform="translate(441 201)">
      <mask id="F" fill="#fff">
        <use xlink:href="#E"/>
      </mask>
      <path fill="#FEFEFE" mask="url(#F)" d="M-4.609 17.277h33.736V-4.594H-4.609z"/>
    </g>
    <path d="M441.3907 213.2769c0-6.557 5.313-11.871 11.867-11.871 6.556 0 11.869 5.314 11.869 11.871" stroke="#EC1D24"/>
    <g transform="translate(447 207)">
      <mask id="H" fill="#fff">
        <use xlink:href="#G"/>
      </mask>
      <path fill="#FEFEFE" mask="url(#H)" d="M-4.827 11.277h22.173V-4.812H-4.827z"/>
    </g>
    <path d="M447.1729 213.2769c0-3.362 2.725-6.089 6.086-6.089 3.362 0 6.087 2.727 6.087 6.089" stroke="#EC1D24"/>
    <g transform="translate(339 119)">
      <mask id="J" fill="#fff">
        <use xlink:href="#I"/>
      </mask>
      <path fill="#FEFEFE" mask="url(#J)" d="M-4.495 35.181H34.72V-4.04H-4.495z"/>
    </g>
    <path d="M339.5049 119.9595c16.135 0 29.215 13.083 29.215 29.221" stroke="#EC1D24"/>
    <g transform="translate(339 125)">
      <mask id="L" fill="#fff">
        <use xlink:href="#K"/>
      </mask>
      <path fill="#FEFEFE" mask="url(#L)" d="M-4.495 29.181h33.433V-4.257H-4.495z"/>
    </g>
    <path d="M339.5049 125.7427c12.941 0 23.433 10.493 23.433 23.438" stroke="#EC1D24"/>
    <g transform="translate(339 131)">
      <mask id="N" fill="#fff">
        <use xlink:href="#M"/>
      </mask>
      <path fill="#FEFEFE" mask="url(#N)" d="M-4.495 23.181h27.651V-4.474H-4.495z"/>
    </g>
    <path d="M339.5049 131.5259c9.748 0 17.651 7.904 17.651 17.655" stroke="#EC1D24"/>
    <g transform="translate(339 137)">
      <mask id="P" fill="#fff">
        <use xlink:href="#O"/>
      </mask>
      <path fill="#FEFEFE" mask="url(#P)" d="M-4.495 17.18h21.868V-4.691H-4.495z"/>
    </g>
    <path d="M339.5049 137.3091c6.554 0 11.868 5.315 11.868 11.871" stroke="#EC1D24"/>
    <g transform="translate(339 143)">
      <mask id="R" fill="#fff">
        <use xlink:href="#Q"/>
      </mask>
      <path fill="#FEFEFE" mask="url(#R)" d="M-4.495 11.181h16.086V-4.908H-4.495z"/>
    </g>
    <path d="M339.5049 143.0918c3.361 0 6.086 2.727 6.086 6.089" stroke="#EC1D24"/>
    <g transform="translate(461 119)">
      <mask id="T" fill="#fff">
        <use xlink:href="#S"/>
      </mask>
      <path fill="#FEFEFE" mask="url(#T)" d="M-4.701 35.181h39.215V-4.04H-4.701z"/>
    </g>
    <path d="M490.5137 119.9595c-16.135 0-29.215 13.083-29.215 29.221" stroke="#EC1D24"/>
    <g transform="translate(467 125)">
      <mask id="V" fill="#fff">
        <use xlink:href="#U"/>
      </mask>
      <path fill="#FEFEFE" mask="url(#V)" d="M-4.92 29.181h33.434V-4.257H-4.92z"/>
    </g>
    <path d="M490.5137 125.7427c-12.941 0-23.434 10.493-23.434 23.438" stroke="#EC1D24"/>
    <g transform="translate(472 131)">
      <mask id="X" fill="#fff">
        <use xlink:href="#W"/>
      </mask>
      <path fill="#FEFEFE" mask="url(#X)" d="M-4.137 23.181h27.65V-4.474h-27.65z"/>
    </g>
    <path d="M490.5137 131.5259c-9.749 0-17.65 7.904-17.65 17.655" stroke="#EC1D24"/>
    <g transform="translate(478 137)">
      <mask id="Z" fill="#fff">
        <use xlink:href="#Y"/>
      </mask>
      <path fill="#FEFEFE" mask="url(#Z)" d="M-4.354 17.18h21.868V-4.691H-4.354z"/>
    </g>
    <path d="M490.5137 137.3091c-6.555 0-11.868 5.315-11.868 11.871" stroke="#EC1D24"/>
    <g transform="translate(484 143)">
      <mask id="ab" fill="#fff">
        <use xlink:href="#aa"/>
      </mask>
      <path fill="#FEFEFE" mask="url(#ab)" d="M-4.572 11.181h16.086V-4.908H-4.572z"/>
    </g>
    <path d="M490.5137 143.0918c-3.361 0-6.086 2.727-6.086 6.089" stroke="#EC1D24"/>
    <path d="M1017.4531 279.4443h-102.053c-1.68 0-3.043-1.362-3.043-3.043v-10.863c0-1.679-1.362-3.042-3.042-3.042h-22.73" stroke="#00ADEE"/>
    <path d="M1017.4531 273.8091h-96.421c-1.679 0-3.041-1.362-3.041-3.043v-10.862c0-1.68-1.362-3.043-3.042-3.043h-28.364" stroke="#EC1D24"/>
    <path d="M912.3575 154.1323v71.139M987.8613 192.8721v67.204h-11.514" stroke="#221E1F"/>
    <path d="M950.0576 218.2285v7.043M1026.1123 218.2285v7.043" stroke="#221E1F" stroke-width="2" stroke-linecap="square"/>
    <path d="M1063.3672 154.1323v71.139M912.3575 225.272h151.011" stroke="#221E1F"/>
    <g transform="translate(955 225)">
      <mask id="ad" fill="#fff">
        <use xlink:href="#ac"/>
      </mask>
      <path fill="#221E1F" mask="url(#ad)" d="M-4.892 27.477H19.67V-4.728H-4.892z"/>
    </g>
    <g transform="translate(973 254)">
      <mask id="af" fill="#fff">
        <use xlink:href="#ae"/>
      </mask>
      <path fill="#221E1F" mask="url(#af)" d="M-4.494 16.296H9.649V-4.146H-4.494z"/>
    </g>
    <g transform="translate(951 247)">
      <mask id="ah" fill="#fff">
        <use xlink:href="#ag"/>
      </mask>
      <path fill="#221E1F" mask="url(#ah)" d="M-4.727 42.44h32.233V-4.523H-4.727z"/>
    </g>
    <g stroke="#221E1F">
      <path d="M452.8672 226.4395v20.658M456.4864 226.4395v20.658"/>
    </g>
    <g transform="translate(444 247)">
      <mask id="aj" fill="#fff">
        <use xlink:href="#ai"/>
      </mask>
      <path fill="#221E1F" mask="url(#aj)" d="M-4.362 42.512H8.654V-4.903H-4.362z"/>
    </g>
    <g transform="translate(448 247)">
      <mask id="al" fill="#fff">
        <use xlink:href="#ak"/>
      </mask>
      <path fill="#221E1F" mask="url(#al)" d="M-4.432 42.512h22.217V-4.903H-4.432z"/>
    </g>
    <path stroke="#221E1F" d="M415.045 192.9443v67.204h-11.514"/>
    <g transform="translate(382 225)">
      <mask id="an" fill="#fff">
        <use xlink:href="#am"/>
      </mask>
      <path fill="#221E1F" mask="url(#an)" d="M-4.707 27.552h24.562V-4.655H-4.707z"/>
    </g>
    <g transform="translate(400 254)">
      <mask id="ap" fill="#fff">
        <use xlink:href="#ao"/>
      </mask>
      <path fill="#221E1F" mask="url(#ap)" d="M-4.31 16.371H9.833V-4.072H-4.31z"/>
    </g>
    <g transform="translate(378 247)">
      <mask id="ar" fill="#fff">
        <use xlink:href="#aq"/>
      </mask>
      <path fill="#221E1F" mask="url(#ar)" d="M-4.542 42.512h32.231V-4.449H-4.542z"/>
    </g>
    <g transform="translate(986 184)">
      <mask id="at" fill="#fff">
        <use xlink:href="#as"/>
      </mask>
      <path fill="#221E1F" mask="url(#at)" d="M-4.314 21.298h14.69V-4.186h-14.69z"/>
    </g>
    <g transform="translate(920 184)">
      <mask id="av" fill="#fff">
        <use xlink:href="#au"/>
      </mask>
      <path fill="#FEFEFE" mask="url(#av)" d="M-4.157 35.002h68.43V-4.219h-68.43z"/>
    </g>
    <path d="M920.8428 214.0024c0-16.138 13.08-29.221 29.215-29.221 16.136 0 29.215 13.083 29.215 29.221" stroke="#00ADEE"/>
    <g transform="translate(926 190)">
      <mask id="ax" fill="#fff">
        <use xlink:href="#aw"/>
      </mask>
      <path fill="#FEFEFE" mask="url(#ax)" d="M-4.375 29.002h56.866V-4.436H-4.375z"/>
    </g>
    <path d="M926.6251 214.0024c0-12.945 10.491-23.438 23.434-23.438 12.94 0 23.432 10.493 23.432 23.438" stroke="#00ADEE"/>
    <g transform="translate(932 196)">
      <mask id="az" fill="#fff">
        <use xlink:href="#ay"/>
      </mask>
      <path fill="#FEFEFE" mask="url(#az)" d="M-4.593 23.002h45.301V-4.653H-4.593z"/>
    </g>
    <path d="M932.4073 214.0024c0-9.751 7.901-17.655 17.65-17.655 9.748 0 17.651 7.904 17.651 17.655" stroke="#00ADEE"/>
    <g transform="translate(938 202)">
      <mask id="aB" fill="#fff">
        <use xlink:href="#aA"/>
      </mask>
      <path fill="#FEFEFE" mask="url(#aB)" d="M-4.811 17.002h33.737V-4.869H-4.811z"/>
    </g>
    <path d="M938.1885 214.0024c0-6.555 5.313-11.871 11.869-11.871s11.868 5.316 11.868 11.871" stroke="#00ADEE"/>
    <g transform="translate(943 207)">
      <mask id="aD" fill="#fff">
        <use xlink:href="#aC"/>
      </mask>
      <path fill="#FEFEFE" mask="url(#aD)" d="M-4.029 12.002h22.174V-4.085H-4.029z"/>
    </g>
    <path d="M943.9707 214.0024c0-3.362 2.726-6.087 6.088-6.087 3.36 0 6.086 2.725 6.086 6.087" stroke="#00ADEE"/>
    <g transform="translate(996 184)">
      <mask id="aF" fill="#fff">
        <use xlink:href="#aE"/>
      </mask>
      <path fill="#FEFEFE" mask="url(#aF)" d="M-4.103 35.002h68.43V-4.219h-68.43z"/>
    </g>
    <path d="M996.8975 214.0024c0-16.138 13.079-29.221 29.215-29.221 16.135 0 29.215 13.083 29.215 29.221" stroke="#00ADEE"/>
    <g transform="translate(1002 190)">
      <mask id="aH" fill="#fff">
        <use xlink:href="#aG"/>
      </mask>
      <path fill="#FEFEFE" mask="url(#aH)" d="M-4.321 29.002h56.866V-4.436H-4.321z"/>
    </g>
    <path d="M1002.6787 214.0024c0-12.945 10.492-23.438 23.434-23.438 12.94 0 23.432 10.493 23.432 23.438" stroke="#00ADEE"/>
    <g transform="translate(1008 196)">
      <mask id="aJ" fill="#fff">
        <use xlink:href="#aI"/>
      </mask>
      <path fill="#FEFEFE" mask="url(#aJ)" d="M-4.539 23.002h45.303V-4.653H-4.539z"/>
    </g>
    <path d="M1008.4609 214.0024c0-9.751 7.902-17.655 17.651-17.655 9.749 0 17.652 7.904 17.652 17.655" stroke="#00ADEE"/>
    <g transform="translate(1014 202)">
      <mask id="aL" fill="#fff">
        <use xlink:href="#aK"/>
      </mask>
      <path fill="#FEFEFE" mask="url(#aL)" d="M-4.757 17.002H28.98V-4.869H-4.757z"/>
    </g>
    <path d="M1014.2432 214.0024c0-6.555 5.314-11.871 11.868-11.871 6.556 0 11.869 5.316 11.869 11.871" stroke="#00ADEE"/>
    <g transform="translate(1020 207)">
      <mask id="aN" fill="#fff">
        <use xlink:href="#aM"/>
      </mask>
      <path fill="#FEFEFE" mask="url(#aN)" d="M-4.974 12.002h22.172V-4.085H-4.974z"/>
    </g>
    <path d="M1020.0264 214.0024c0-3.362 2.725-6.087 6.086-6.087 3.362 0 6.086 2.725 6.086 6.087" stroke="#00ADEE"/>
    <g transform="translate(912 120)">
      <mask id="aP" fill="#fff">
        <use xlink:href="#aO"/>
      </mask>
      <path fill="#FEFEFE" mask="url(#aP)" d="M-4.643 34.906h39.215V-4.315H-4.643z"/>
    </g>
    <path d="M912.3575 120.6855c16.135 0 29.215 13.082 29.215 29.221" stroke="#00ADEE"/>
    <g transform="translate(912 126)">
      <mask id="aR" fill="#fff">
        <use xlink:href="#aQ"/>
      </mask>
      <path fill="#FEFEFE" mask="url(#aR)" d="M-4.643 28.907h33.434V-4.531H-4.643z"/>
    </g>
    <path d="M912.3575 126.4687c12.941 0 23.434 10.494 23.434 23.438" stroke="#00ADEE"/>
    <g transform="translate(912 132)">
      <mask id="aT" fill="#fff">
        <use xlink:href="#aS"/>
      </mask>
      <path fill="#FEFEFE" mask="url(#aT)" d="M-4.643 22.906h27.651V-4.749H-4.643z"/>
    </g>
    <path d="M912.3575 132.2515c9.749 0 17.651 7.904 17.651 17.655" stroke="#00ADEE"/>
    <g transform="translate(912 138)">
      <mask id="aV" fill="#fff">
        <use xlink:href="#aU"/>
      </mask>
      <path fill="#FEFEFE" mask="url(#aV)" d="M-4.643 16.906h21.867V-4.965H-4.643z"/>
    </g>
    <path d="M912.3575 138.0347c6.554 0 11.867 5.315 11.867 11.871" stroke="#00ADEE"/>
    <g transform="translate(912 143)">
      <mask id="aX" fill="#fff">
        <use xlink:href="#aW"/>
      </mask>
      <path fill="#FEFEFE" mask="url(#aX)" d="M-4.643 11.906h16.086V-4.181H-4.643z"/>
    </g>
    <path d="M912.3575 143.8188c3.361 0 6.086 2.725 6.086 6.087" stroke="#00ADEE"/>
    <g transform="translate(1034 120)">
      <mask id="aZ" fill="#fff">
        <use xlink:href="#aY"/>
      </mask>
      <path fill="#FEFEFE" mask="url(#aZ)" d="M-4.848 34.906h39.215V-4.315H-4.848z"/>
    </g>
    <path d="M1063.3672 120.6855c-16.135 0-29.215 13.082-29.215 29.221" stroke="#00ADEE"/>
    <g transform="translate(1039 126)">
      <mask id="bb" fill="#fff">
        <use xlink:href="#ba"/>
      </mask>
      <path fill="#FEFEFE" mask="url(#bb)" d="M-4.066 28.907h33.434V-4.531H-4.066z"/>
    </g>
    <path d="M1063.3672 126.4687c-12.942 0-23.434 10.494-23.434 23.438" stroke="#00ADEE"/>
    <g transform="translate(1045 132)">
      <mask id="bd" fill="#fff">
        <use xlink:href="#bc"/>
      </mask>
      <path fill="#FEFEFE" mask="url(#bd)" d="M-4.284 22.906h27.651V-4.749H-4.284z"/>
    </g>
    <path d="M1063.3672 132.2515c-9.749 0-17.651 7.904-17.651 17.655" stroke="#00ADEE"/>
    <g transform="translate(1051 138)">
      <mask id="bf" fill="#fff">
        <use xlink:href="#be"/>
      </mask>
      <path fill="#FEFEFE" mask="url(#bf)" d="M-4.501 16.906h21.868V-4.965H-4.501z"/>
    </g>
    <path d="M1063.3672 138.0347c-6.555 0-11.868 5.315-11.868 11.871" stroke="#00ADEE"/>
    <g transform="translate(1057 143)">
      <mask id="bh" fill="#fff">
        <use xlink:href="#bg"/>
      </mask>
      <path fill="#FEFEFE" mask="url(#bh)" d="M-4.72 11.906h16.087V-4.181H-4.72z"/>
    </g>
    <path d="M1063.3672 143.8188c-3.361 0-6.087 2.725-6.087 6.087" stroke="#00ADEE"/>
    <g transform="translate(306 247)">
      <mask id="bj" fill="#fff">
        <use xlink:href="#bi"/>
      </mask>
      <path fill="#221E1F" mask="url(#bj)" d="M-4.286 30.746h25.154V-4.449H-4.286z"/>
    </g>
    <g transform="translate(879 247)">
      <mask id="bl" fill="#fff">
        <use xlink:href="#bk"/>
      </mask>
      <path fill="#221E1F" mask="url(#bl)" d="M-4.406 30.219h25.155V-4.975H-4.406z"/>
    </g>
    <path d="M842.4053 422.377v-79.538" stroke="#00B4F0" stroke-width="2"/>
    <g>
      <path d="M813.6993 517.9292v5.226c0 .773-.476 1.497-1.269 1.926l-.121.065c-1.534.832-1.534 3.024 0 3.854l1.39.753 1.39.754c1.535.831 1.535 3.022 0 3.854l-1.39.752-1.263.685c-1.59.861-1.587 3.132.002 3.993l1.261.681 1.269.688c1.586.86 1.586 3.128 0 3.989-.792.429-1.269 1.152-1.269 1.926v3.897" stroke="#EC1D24"/>
      <path fill="#EC1D24" d="M807.8487 549.2686l5.852 10.083 5.85-10.083z"/>
    </g>
    <g transform="translate(807 549)">
      <mask id="bn" fill="#fff">
        <use xlink:href="#bm"/>
      </mask>
      <path fill="#EC1D24" mask="url(#bn)" d="M-893 2989H547v-5855H-893z"/>
      <path fill="#EC1D24" mask="url(#bn)" d="M-4.151 15.351h21.702V-4.732H-4.151z"/>
    </g>
    <path fill="#EC1D24" d="M235.4151 526.625l11.657-.056-5.832-10.093z"/>
    <g transform="translate(235 516)">
      <mask id="bp" fill="#fff">
        <use xlink:href="#bo"/>
      </mask>
      <path fill="#EC1D24" mask="url(#bp)" d="M11.0069 22.4697l10.804-18.823-17.418-9.997-10.803 18.823z"/>
    </g>
    <path fill="#EC1D24" d="M258.8282 524.7783l7.516-8.912-11.466-2.104z"/>
    <g transform="translate(254 513)">
      <mask id="br" fill="#fff">
        <use xlink:href="#bq"/>
      </mask>
      <path fill="#EC1D24" mask="url(#br)" d="M20.713 11.3936l-7.325-20.429-18.904 6.779 7.326 20.429z"/>
    </g>
    <g>
      <path d="M828.4659 512.1826l3.713 3.696c.55.548.727 1.393.472 2.255l-.039.131c-.545 1.838.891 3.267 2.739 2.726l1.517-.447 1.518-.444c1.848-.542 3.284.885 2.737 2.724l-.447 1.51-.446 1.512c-.544 1.838.892 3.267 2.741 2.723l1.514-.446 1.524-.446c1.846-.541 3.281.887 2.737 2.724l-.041.137c-.255.862-.077 1.708.473 2.255l1.022 1.017 1.747 1.739" stroke="#EC1D24"/>
      <path fill="#EC1D24" d="M846.5987 538.4604l11.303 3.011-3.028-11.245z"/>
    </g>
    <g transform="translate(846 530)">
      <mask id="bt" fill="#fff">
        <use xlink:href="#bs"/>
      </mask>
      <path fill="#EC1D24" mask="url(#bt)" d="M-932 3008H508v-5855H-932z"/>
      <path fill="#EC1D24" mask="url(#bt)" d="M-4.401 16.472h21.303V-4.773H-4.401z"/>
    </g>
    <g>
      <path d="M798.9366 512.1826l-3.713 3.696c-.55.548-.727 1.393-.472 2.255l.039.131c.545 1.838-.89 3.267-2.738 2.726l-1.518-.447-1.518-.444c-1.848-.542-3.284.885-2.739 2.724l.448 1.51.447 1.512c.544 1.838-.894 3.267-2.741 2.723l-1.514-.446-1.524-.446c-1.846-.541-3.281.887-2.738 2.724l.042.137c.255.862.077 1.708-.473 2.255l-1.022 1.017-1.747 1.739" stroke="#EC1D24"/>
      <path fill="#EC1D24" d="M772.5294 530.2271l-3.027 11.245 11.301-3.011z"/>
    </g>
    <g transform="translate(769 530)">
      <mask id="bv" fill="#fff">
        <use xlink:href="#bu"/>
      </mask>
      <path fill="#EC1D24" mask="url(#bv)" d="M-4.498 16.472h21.302V-4.773H-4.498z"/>
    </g>
    <g>
      <path fill="#EC1D24" d="M227.5714 512.3506l-11.203 3.179 8.389 8.15z"/>
      <path d="M241.751 559.3516v-5.226c0-.774-.476-1.498-1.269-1.926l-.121-.065c-1.535-.831-1.535-3.024 0-3.854l1.39-.754 1.39-.752c1.534-.832 1.534-3.023 0-3.855l-1.39-.752-1.264-.685c-1.588-.861-1.586-3.131.004-3.993l1.26-.681 1.269-.687c1.586-.861 1.586-3.13 0-3.99-.793-.429-1.269-1.152-1.269-1.927v-3.898M196.8038 541.2222l3.713-3.695c.55-.547 1.4-.722 2.266-.47l.132.04c1.848.542 3.285-.887 2.74-2.725l-.449-1.51-.447-1.511c-.545-1.837.891-3.267 2.738-2.725l1.518.445 1.519.445c1.848.542 3.284-.888 2.736-2.727l-.447-1.507-.449-1.515c-.544-1.837.891-3.267 2.739-2.725l.137.042c.865.253 1.715.076 2.265-.471l1.023-1.018 1.746-1.737M286.7452 542.1768l-3.786-3.62c-.562-.536-.758-1.381-.526-2.253l.035-.134c.496-1.86-.968-3.261-2.792-2.67l-1.498.487-1.5.484c-1.823.591-3.288-.808-2.792-2.669l.406-1.527.407-1.532c.496-1.86-.971-3.259-2.795-2.666l-1.495.485-1.504.487c-1.823.589-3.288-.809-2.792-2.669l.038-.139c.232-.871.033-1.716-.527-2.252l-1.044-.998-1.78-1.701" stroke="#EC1D24"/>
      <path d="M254.5626 257.5269h-89.688c-3.285 0-6.207 1.563-8.058 3.987-1.307 1.706-2.082 3.841-2.082 6.155v236.887c0 1.705 1.383 3.09 3.089 3.09" stroke="#00ADEE"/>
      <path d="M243.0733 507.604c1.707 0 3.09-1.384 3.09-3.09V282.359l.031-12.14c0-1.592.533-3.058 1.43-4.232 1.273-1.665 3.281-2.739 5.539-2.739h86.181" stroke="#EC1D24"/>
      <path d="M339.5626 257.5269h-89.688c-3.285 0-6.207 1.563-8.058 3.987-1.307 1.706-2.082 3.841-2.082 6.155v236.887c0 1.705 1.383 3.09 3.089 3.09" stroke="#00ADEE"/>
      <path stroke="#00B4F0" stroke-width="2" d="M834.0928 350.3335l8.314-8.592 8.186 8.925M216.2794 341.7412v79.538M224.5928 413.7852l-8.315 8.592-8.185-8.925"/>
      <path d="M784.6133 341.7412v79.538M792.9258 413.7852l-8.314 8.592-8.186-8.925M272.7383 422.377v-79.538M264.4258 350.3335l8.314-8.592 8.186 8.925" stroke="#EC1D24"/>
    </g>
  </g>
</svg>