<svg xmlns="http://www.w3.org/2000/svg" viewBox="0 0 613.51 239.97">
  <defs>
    <style>
      .cls-1{fill:#fabb2d}
    </style>
  </defs>
  <g id="Layer_2" data-name="Layer 2">
    <g id="Layer_1-2" data-name="Layer 1">
      <g id="Layer_2-2" data-name="Layer 2">
        <g id="Layer_1-2-2" data-name="Layer 1-2">
          <path class="cls-1" d="M225.33 220.54v-64.91l-43-43 43-43V0h-69.71l-42.73 43.19L69.7 0H0v69.7l43 43-43 43v69.7h69.7l43-43 43 43h69.7v-4.79zm-9.57-157.61H162.4V9.58h53.35zm-102.83-6.16l39.9-40.34V72.5H209l-40.16 40.16 46.93 46.93V209L72.5 65.73V16.35zm-47.2 159H9.58V159.6l40.16-40.16 56.16 56.16zM116 172.22l-62.88-62.94L9.58 65.73V9.58h53.35V69.7L209 215.76h-49.4zM336.57 1.65v5.21a1.07 1.07 0 0 1-1.21 1.21h-13.51a.4.4 0 0 0-.45.45v43.54a1.07 1.07 0 0 1-1.21 1.21h-6.34a1.07 1.07 0 0 1-1.21-1.21V8.52a.4.4 0 0 0-.34-.45h-13.11A1.07 1.07 0 0 1 298 6.86V1.65a1.07 1.07 0 0 1 1.21-1.21h36.15a1.07 1.07 0 0 1 1.21 1.21zM371.39 17.72q3.66 3.62 3.66 9.89v24.45a1.07 1.07 0 0 1-1.21 1.21h-6.34a1.07 1.07 0 0 1-1.21-1.21V29.42a7.93 7.93 0 0 0-2-5.62 7.52 7.52 0 0 0-10.49 0 7.79 7.79 0 0 0-2 5.58v22.68a1.07 1.07 0 0 1-1.21 1.21h-6.34a1.07 1.07 0 0 1-1.25-1.21V1.65a1.07 1.07 0 0 1 1.27-1.21h6.34a1.07 1.07 0 0 1 1.21 1.21V18c0 .2 0 .33.15.38s.2 0 .3-.15q3.17-4.07 9.28-4.07a13.66 13.66 0 0 1 9.84 3.56zM405.5 45.31a9.15 9.15 0 0 0 3.36-3 1.13 1.13 0 0 1 1.68-.37l3.62 2.87a1.48 1.48 0 0 1 .53 1 1.35 1.35 0 0 1-.23.68 15.18 15.18 0 0 1-6 5.43 18.53 18.53 0 0 1-8.68 2 17 17 0 0 1-10-2.83 15.85 15.85 0 0 1-5.78-7.93 27.22 27.22 0 0 1-1.51-9.36 29.57 29.57 0 0 1 .83-8 15.24 15.24 0 0 1 5.68-8.53 16.61 16.61 0 0 1 10.2-3.17q14.11 0 16.53 15.47a58.56 58.56 0 0 1 .53 6.19A1.07 1.07 0 0 1 415 37h-23.34a.4.4 0 0 0-.45.45 10.15 10.15 0 0 0 .45 3.32 7.46 7.46 0 0 0 3.17 4.23 10.5 10.5 0 0 0 5.81 1.51 10.93 10.93 0 0 0 4.86-1.2zM394.41 23a7 7 0 0 0-2.53 3.89 11 11 0 0 0-.6 3.17q-.08.45.38.45h15.17a.4.4 0 0 0 .45-.45 22.81 22.81 0 0 0-.45-2.72 7.48 7.48 0 0 0-2.68-4.19 8 8 0 0 0-5-1.55 7.61 7.61 0 0 0-4.74 1.4zM301 137.9V87.49a1.07 1.07 0 0 1 1.21-1.21h6.41a1.58 1.58 0 0 1 1.51.83l11.77 19a.42.42 0 0 0 .34.23c.13 0 .21-.08.26-.23l11.92-19a1.58 1.58 0 0 1 1.51-.83h6.34a1.07 1.07 0 0 1 1.21 1.21v50.41a1.07 1.07 0 0 1-1.21 1.21h-6.34a1.07 1.07 0 0 1-1.21-1.21v-35.69c0-.2-.06-.33-.19-.38s-.24 0-.34.23l-9 14.72a1.58 1.58 0 0 1-1.51.83h-2.94a1.58 1.58 0 0 1-1.51-.83l-9-14.72q-.15-.3-.34-.23c-.13.05-.19.18-.19.38v35.69a1.07 1.07 0 0 1-1.21 1.21h-6.39a1.07 1.07 0 0 1-1.1-1.21zM359.06 136.69a15.49 15.49 0 0 1-6-8.38 26.21 26.21 0 0 1-1.28-8.6 28.2 28.2 0 0 1 1.21-8.6 15.5 15.5 0 0 1 6-8.23 17.86 17.86 0 0 1 10.34-2.94 16.82 16.82 0 0 1 9.92 2.94 15.72 15.72 0 0 1 5.92 8.15 24.5 24.5 0 0 1 1.36 8.6 27.13 27.13 0 0 1-1.28 8.6 16.23 16.23 0 0 1-6 8.41 16.67 16.67 0 0 1-10 3.06 17.41 17.41 0 0 1-10.19-3.01zm15.06-6.11a8.51 8.51 0 0 0 2.83-4.45 20 20 0 0 0 .83-6.34 23.32 23.32 0 0 0-.75-6.34 7.78 7.78 0 0 0-7.85-6 7.88 7.88 0 0 0-4.91 1.55 8.21 8.21 0 0 0-2.87 4.41 27 27 0 0 0 0 12.68 8.3 8.3 0 0 0 2.91 4.45 8 8 0 0 0 5 1.58 7.48 7.48 0 0 0 4.8-1.54zM400.33 136.69a15.49 15.49 0 0 1-6-8.38 26.21 26.21 0 0 1-1.28-8.6 28.2 28.2 0 0 1 1.21-8.6 15.5 15.5 0 0 1 6-8.23 17.86 17.86 0 0 1 10.34-2.94 16.82 16.82 0 0 1 9.92 2.94 15.72 15.72 0 0 1 5.92 8.15 24.5 24.5 0 0 1 1.36 8.6 27.13 27.13 0 0 1-1.28 8.6 16.23 16.23 0 0 1-6 8.41 16.67 16.67 0 0 1-10 3.06 17.41 17.41 0 0 1-10.19-3.01zm15.06-6.11a8.51 8.51 0 0 0 2.83-4.45 20 20 0 0 0 .83-6.34 23.32 23.32 0 0 0-.75-6.34 7.78 7.78 0 0 0-7.85-6 7.88 7.88 0 0 0-4.91 1.55 8.21 8.21 0 0 0-2.87 4.41 27 27 0 0 0 0 12.68 8.3 8.3 0 0 0 2.91 4.45 8 8 0 0 0 5 1.58 7.48 7.48 0 0 0 4.81-1.54zM463.76 103.56q3.66 3.62 3.66 9.89v24.45a1.07 1.07 0 0 1-1.21 1.21h-6.34a1.07 1.07 0 0 1-1.21-1.21v-22.64a7.93 7.93 0 0 0-2-5.62 7.52 7.52 0 0 0-10.49 0 7.79 7.79 0 0 0-2 5.58v22.68a1.07 1.07 0 0 1-1.21 1.21h-6.34a1.07 1.07 0 0 1-1.21-1.21v-36.15a1.07 1.07 0 0 1 1.21-1.21H443a1.07 1.07 0 0 1 1.21 1.21v2c0 .2 0 .33.15.38s.2 0 .3-.15q3.17-4.07 9.28-4.07a13.4 13.4 0 0 1 9.82 3.65zM481.8 138.16a12.89 12.89 0 0 1-5.55-3.85 8.53 8.53 0 0 1-2-5.47v-.38a1.07 1.07 0 0 1 1.21-1.21h6q1.21 0 1.21.53v.53a4 4 0 0 0 2.08 3.28A9.19 9.19 0 0 0 490 133a8.76 8.76 0 0 0 4.9-1.25 3.67 3.67 0 0 0 1.89-3.13 2.81 2.81 0 0 0-1.55-2.6 25 25 0 0 0-5-1.85l-2.87-.91a42.35 42.35 0 0 1-6.49-2.41 12.94 12.94 0 0 1-4.45-3.51 8.73 8.73 0 0 1-1.81-5.7 10 10 0 0 1 4.11-8.41q4.11-3.13 10.9-3.13a20.57 20.57 0 0 1 8.07 1.47 12.67 12.67 0 0 1 5.4 4.08 9.71 9.71 0 0 1 1.92 5.92.79.79 0 0 1-.34.64 1.37 1.37 0 0 1-.87.26H498q-1.21 0-1.21-.45v-.45a3.89 3.89 0 0 0-1.92-3.28 9.15 9.15 0 0 0-5.24-1.32 9.33 9.33 0 0 0-4.79 1.09 3.39 3.39 0 0 0-1.85 3.06 3 3 0 0 0 1.74 2.75 30.22 30.22 0 0 0 5.81 2.08l1.74.45a56.9 56.9 0 0 1 6.79 2.41 12.55 12.55 0 0 1 4.6 3.47 8.78 8.78 0 0 1 1.89 5.81 9.82 9.82 0 0 1-4.23 8.41q-4.23 3.06-11.24 3.06a22.87 22.87 0 0 1-8.29-1.4zM540.58 103.56q3.66 3.62 3.66 9.89v24.45a1.07 1.07 0 0 1-1.21 1.21h-6.33a1.07 1.07 0 0 1-1.21-1.21v-22.64a7.93 7.93 0 0 0-2-5.62 7.52 7.52 0 0 0-10.49 0 7.79 7.79 0 0 0-2 5.58v22.68a1.07 1.07 0 0 1-1.21 1.21h-6.34a1.07 1.07 0 0 1-1.21-1.21V87.49a1.07 1.07 0 0 1 1.21-1.21h6.34a1.07 1.07 0 0 1 1.21 1.21v16.3c0 .2 0 .33.15.38s.2 0 .3-.15q3.17-4.07 9.28-4.07a13.58 13.58 0 0 1 9.85 3.61zM558.73 136.69a15.49 15.49 0 0 1-6-8.38 26.21 26.21 0 0 1-1.28-8.6 28.2 28.2 0 0 1 1.21-8.6 15.5 15.5 0 0 1 6-8.23A17.86 17.86 0 0 1 569 99.94a16.82 16.82 0 0 1 9.92 2.94 15.72 15.72 0 0 1 5.92 8.15 24.5 24.5 0 0 1 1.36 8.6 27.13 27.13 0 0 1-1.28 8.6 16.23 16.23 0 0 1-6 8.41 16.67 16.67 0 0 1-10 3.06 17.41 17.41 0 0 1-10.19-3.01zm15.06-6.11a8.51 8.51 0 0 0 2.83-4.45 20 20 0 0 0 .83-6.34 23.32 23.32 0 0 0-.75-6.34 7.78 7.78 0 0 0-7.85-6 7.88 7.88 0 0 0-4.91 1.55 8.21 8.21 0 0 0-2.87 4.41 27 27 0 0 0 0 12.68 8.3 8.3 0 0 0 2.91 4.45 8 8 0 0 0 5 1.58 7.48 7.48 0 0 0 4.81-1.54zM612.23 107.64h-7.32a.4.4 0 0 0-.45.45v17.81a5.93 5.93 0 0 0 1.25 4.23 5.32 5.32 0 0 0 4 1.28h2a1.07 1.07 0 0 1 1.21 1.21v5.06a1.14 1.14 0 0 1-1 1.27h-.22l-3.7.05q-6 0-8.9-2.08t-3-7.74v-21.09a.4.4 0 0 0-.34-.45h-4a1.07 1.07 0 0 1-1.21-1.21v-4.68a1.07 1.07 0 0 1 1.21-1.21h3.92a.4.4 0 0 0 .45-.45v-8.45a1.07 1.07 0 0 1 1.21-1.21h6a1.07 1.07 0 0 1 1.21 1.21v8.45a.4.4 0 0 0 .34.45h7.43a1.07 1.07 0 0 1 1.21 1.21v4.68a1.07 1.07 0 0 1-1.27 1.21zM335.44 179.67h-25.28a.4.4 0 0 0-.45.45v14a.4.4 0 0 0 .34.45h17a1.07 1.07 0 0 1 1.21 1.21v5.13a1.07 1.07 0 0 1-1.21 1.21h-16.9a.4.4 0 0 0-.45.45v21.21a1.07 1.07 0 0 1-1.2 1.22h-6.34a1.07 1.07 0 0 1-1.21-1.21v-50.46a1.07 1.07 0 0 1 1.21-1.21h33.28a1.07 1.07 0 0 1 1.21 1.21v5.13a1.07 1.07 0 0 1-1.21 1.21zM361.73 187.44a13.13 13.13 0 0 1 5.62 4.57 11.53 11.53 0 0 1 2 6.6v25.13a1.07 1.07 0 0 1-1.21 1.21h-6.34a1.07 1.07 0 0 1-1.21-1.21v-1.89c0-.2 0-.31-.15-.34a.5.5 0 0 0-.38.11q-4.07 3.92-10.87 3.92a14.21 14.21 0 0 1-9.17-2.87q-3.59-2.87-3.58-8.53a11.07 11.07 0 0 1 4.11-9.17q4.11-3.28 11.58-3.28h8a.4.4 0 0 0 .45-.45v-1.74a5.88 5.88 0 0 0-1.77-4.57 7.53 7.53 0 0 0-5.24-1.62 9.09 9.09 0 0 0-4.38.94 4.8 4.8 0 0 0-2.34 2.6 1.2 1.2 0 0 1-1.36 1l-6.79-.85a1.66 1.66 0 0 1-.91-.34.64.64 0 0 1-.23-.64 10.57 10.57 0 0 1 5-7.4 19.09 19.09 0 0 1 10.75-2.87 20.19 20.19 0 0 1 8.42 1.69zm-3.81 29.2a6 6 0 0 0 2.64-5v-3.44a.4.4 0 0 0-.34-.45h-6.37a11.59 11.59 0 0 0-6.34 1.51 4.83 4.83 0 0 0-2.34 4.3 4.35 4.35 0 0 0 1.83 3.74 7.61 7.61 0 0 0 4.6 1.32 10.33 10.33 0 0 0 6.34-2zM392.57 225.55a16 16 0 0 1-9.21-2.92l-.08-.06a15.45 15.45 0 0 1-5.89-8 34 34 0 0 1 0-18 14.65 14.65 0 0 1 5.85-7.89 17.46 17.46 0 0 1 10.07-2.91 18 18 0 0 1 10.26 2.94 14 14 0 0 1 5.81 7.4 14.38 14.38 0 0 1 .45 2.11v.3c0 .55-.33.91-1 1.06l-6.26 1h-.3a1 1 0 0 1-1.06-.91l-.23-1a6.5 6.5 0 0 0-2.64-3.81 8.33 8.33 0 0 0-5.06-1.55 8 8 0 0 0-4.87 1.47 7.1 7.1 0 0 0-2.68 4 23.48 23.48 0 0 0-.75 6.72 27 27 0 0 0 .68 6.72 7.92 7.92 0 0 0 2.72 4.19 7.67 7.67 0 0 0 4.9 1.55 8.32 8.32 0 0 0 4.94-1.47 6.6 6.6 0 0 0 2.68-3.89l.08-.38a1.44 1.44 0 0 1 .49-.75 1.11 1.11 0 0 1 .94-.3l6.26 1c.65.15 1 .5 1 1.06a10.7 10.7 0 0 1-.3 1.81 13.46 13.46 0 0 1-5.81 7.66 18.48 18.48 0 0 1-10.26 2.83zM435.8 193.48h-7.32a.4.4 0 0 0-.45.45v17.81a5.93 5.93 0 0 0 1.25 4.23 5.32 5.32 0 0 0 4 1.28h2a1.07 1.07 0 0 1 1.21 1.21v5.06a1.14 1.14 0 0 1-1 1.27h-.22l-3.62.08q-6 0-8.9-2.08t-3-7.74v-21.12a.4.4 0 0 0-.34-.45h-4a1.07 1.07 0 0 1-1.21-1.21v-4.68a1.07 1.07 0 0 1 1.21-1.21h3.92a.4.4 0 0 0 .45-.45v-8.45a1.07 1.07 0 0 1 1.21-1.21h6a1.07 1.07 0 0 1 1.21 1.21v8.45a.4.4 0 0 0 .34.45h7.43a1.07 1.07 0 0 1 1.21 1.21v4.68a1.07 1.07 0 0 1-1.36 1.21zM449.46 222.53a15.49 15.49 0 0 1-6-8.38 26.21 26.21 0 0 1-1.28-8.6 28.2 28.2 0 0 1 1.21-8.6 15.5 15.5 0 0 1 6-8.23 17.86 17.86 0 0 1 10.34-2.94 16.82 16.82 0 0 1 9.92 2.94 15.72 15.72 0 0 1 5.92 8.15 24.5 24.5 0 0 1 1.36 8.6 27.13 27.13 0 0 1-1.28 8.6 16.23 16.23 0 0 1-6 8.41 16.67 16.67 0 0 1-10 3.06 17.41 17.41 0 0 1-10.19-3.01zm15.06-6.11a8.51 8.51 0 0 0 2.83-4.45 20 20 0 0 0 .83-6.34 23.32 23.32 0 0 0-.75-6.34 7.78 7.78 0 0 0-7.85-6 7.88 7.88 0 0 0-4.91 1.55 8.21 8.21 0 0 0-2.87 4.41 27 27 0 0 0 0 12.68 8.3 8.3 0 0 0 2.91 4.45 8 8 0 0 0 5 1.58 7.48 7.48 0 0 0 4.81-1.54zM506.51 186.76a1.23 1.23 0 0 1 .68 1.51l-1.19 6.27q-.08.6-.42.75a1.7 1.7 0 0 1-1 0 7.88 7.88 0 0 0-2.42-.3 10.77 10.77 0 0 0-1.43.08 7.8 7.8 0 0 0-5.28 2.23 7.23 7.23 0 0 0-2.11 5.4v21.05a1.07 1.07 0 0 1-1.21 1.21h-6.34a1.07 1.07 0 0 1-1.21-1.21v-36.16a1.07 1.07 0 0 1 1.21-1.21h6.34a1.07 1.07 0 0 1 1.21 1.21v2.94c0 .2 0 .33.15.38s.2 0 .3-.23a10 10 0 0 1 8.75-4.75 9.49 9.49 0 0 1 3.97.83zM512.17 238.76v-4.83q0-1.21.53-1.21h.45a16.22 16.22 0 0 0 4.83-.57 5.42 5.42 0 0 0 2.83-2.15 16.69 16.69 0 0 0 2-4.75.63.63 0 0 0 0-.6l-12.3-36.9a1.66 1.66 0 0 1-.08-.53q0-.83 1.06-.83h6.79a1.29 1.29 0 0 1 1.36 1l7.4 25q.15.3.34.3c.13 0 .21-.1.26-.3l7.17-25a1.29 1.29 0 0 1 1.36-1H543a1.13 1.13 0 0 1 .94.34 1.07 1.07 0 0 1 0 1L530.73 227a35.7 35.7 0 0 1-3.7 8 9.92 9.92 0 0 1-4.94 3.77 27.18 27.18 0 0 1-8.87 1.13h-.53q-.52.1-.52-1.14z"/>
        </g>
      </g>
    </g>
  </g>
</svg>